<?xml version="1.0" encoding="UTF-8"?>
<svg id="Layer_1" data-name="Layer 1" xmlns="http://www.w3.org/2000/svg" xmlns:xlink="http://www.w3.org/1999/xlink" viewBox="0 0 1920 1080">
  <defs>
    <style>
      .cls-1 {
        stroke: url(#radial-gradient-9);
      }

      .cls-1, .cls-2, .cls-3, .cls-4, .cls-5, .cls-6, .cls-7, .cls-8, .cls-9 {
        fill: none;
        stroke-miterlimit: 10;
        stroke-width: 18px;
      }

      .cls-2 {
        stroke: url(#radial-gradient-7);
      }

      .cls-3 {
        stroke: url(#radial-gradient);
      }

      .cls-10 {
        fill: #ede7f1;
        font-size: 144px;
      }

      .cls-10, .cls-11 {
        font-family: NiagaraSolid-Reg, 'Niagara Solid';
      }

      .cls-4 {
        stroke: url(#radial-gradient-4);
      }

      .cls-5 {
        stroke: url(#radial-gradient-2);
      }

      .cls-6 {
        stroke: url(#radial-gradient-6);
      }

      .cls-7 {
        stroke: url(#radial-gradient-3);
      }

      .cls-8 {
        stroke: url(#radial-gradient-5);
      }

      .cls-9 {
        stroke: url(#radial-gradient-8);
      }

      .cls-11 {
        fill: #ede6f1;
        font-size: 306.31px;
      }
    </style>
    <radialGradient id="radial-gradient" cx="787" cy="452.02" fx="787" fy="452.02" r="193.6" gradientUnits="userSpaceOnUse">
      <stop offset="0" stop-color="#ede6f1"/>
      <stop offset=".18" stop-color="#e0d4e5"/>
      <stop offset=".44" stop-color="#d3c2d9"/>
      <stop offset=".71" stop-color="#cbb6d2"/>
      <stop offset="1" stop-color="#c9b3d0"/>
    </radialGradient>
    <radialGradient id="radial-gradient-2" cx="1156.1" cy="519.61" fx="1156.1" fy="519.61" r="173.23" xlink:href="#radial-gradient"/>
    <radialGradient id="radial-gradient-3" cx="969.5" cy="617.38" fx="969.5" fy="617.38" r="71.77" xlink:href="#radial-gradient"/>
    <radialGradient id="radial-gradient-4" cx="887.22" cy="631.02" fx="887.22" fy="631.02" r="51.67" xlink:href="#radial-gradient"/>
    <radialGradient id="radial-gradient-5" cx="1231" cy="631" fx="1231" fy="631" r="102.02" xlink:href="#radial-gradient"/>
    <radialGradient id="radial-gradient-6" cx="417.6" cy="517.6" fx="417.6" fy="517.6" r="173.23" xlink:href="#radial-gradient"/>
    <radialGradient id="radial-gradient-7" cx="607.5" cy="617.38" fx="607.5" fy="617.38" r="71.77" xlink:href="#radial-gradient"/>
    <radialGradient id="radial-gradient-8" cx="688.48" cy="631" fx="688.48" fy="631" r="51.67" xlink:href="#radial-gradient"/>
    <radialGradient id="radial-gradient-9" cx="343" cy="631" fx="343" fy="631" r="102.02" xlink:href="#radial-gradient"/>
  </defs>
  <path class="cls-3" d="M918,388s18-65,40-98l-33-33h-276l-33,33c22,33,40,98,40,98,14,38-19,110-19,110,4,76,155,148,155,148,0,0,141-72,145-148,0,0-33-72-19-110Z"/>
  <path class="cls-5" d="M937,502.5s162-143.5,225.81,0c0,0,37.13,98.05,124.19,104.5,88.65,6.57,85.65-83.21,85-87,0,0-2-75-77-87s-102.48,76-13.74,110"/>
  <path class="cls-7" d="M874,592h141.61c11.68,0,22.8,5.21,30.13,14.3,12.1,15.01,21.8,36.46-21.59,36.46-66.75,0-17.67-32-17.67-32"/>
  <line class="cls-4" x1="814.7" y1="631.02" x2="959.74" y2="631.02"/>
  <line class="cls-8" x1="1087" y1="631" x2="1375" y2="631"/>
  <path class="cls-6" d="M636.7,500.48s-162-143.5-225.81,0c0,0-37.13,98.05-124.19,104.5-88.65,6.57-85.65-83.21-85-87,0,0,2-75,77-87,75-12,102.48,76,13.74,110"/>
  <path class="cls-2" d="M703,592h-141.61c-11.68,0-22.8,5.21-30.13,14.3-12.1,15.01-21.8,36.46,21.59,36.46,66.75,0,17.67-32,17.67-32"/>
  <line class="cls-9" x1="761" y1="631" x2="615.96" y2="631"/>
  <line class="cls-1" x1="487" y1="631" x2="199" y2="631"/>
  <text class="cls-10" transform="translate(367.19 767.65)"><tspan x="0" y="0">DIGI ROYAL CONFERENCES</tspan></text>
  <text class="cls-11" transform="translate(693.41 537.02)"><tspan x="0" y="0">DR</tspan></text>
</svg>