<?xml version="1.0" encoding="UTF-8"?>
<svg id="Layer_2" data-name="Layer 2" xmlns="http://www.w3.org/2000/svg" xmlns:xlink="http://www.w3.org/1999/xlink" viewBox="0 0 1188.65 547.84">
  <defs>
    <style>
      .cls-1 {
        stroke: url(#radial-gradient-9);
      }

      .cls-1, .cls-2, .cls-3, .cls-4, .cls-5, .cls-6, .cls-7, .cls-8, .cls-9 {
        fill: none;
        stroke-miterlimit: 10;
        stroke-width: 18px;
      }

      .cls-2 {
        stroke: url(#radial-gradient-7);
      }

      .cls-3 {
        stroke: url(#radial-gradient);
      }

      .cls-10 {
        fill: #ede7f1;
        font-size: 144px;
      }

      .cls-10, .cls-11 {
        font-family: NiagaraSolid-Reg, 'Niagara Solid';
      }

      .cls-4 {
        stroke: url(#radial-gradient-4);
      }

      .cls-5 {
        stroke: url(#radial-gradient-2);
      }

      .cls-6 {
        stroke: url(#radial-gradient-6);
      }

      .cls-7 {
        stroke: url(#radial-gradient-3);
      }

      .cls-8 {
        stroke: url(#radial-gradient-5);
      }

      .cls-9 {
        stroke: url(#radial-gradient-8);
      }

      .cls-11 {
        fill: #ede6f1;
        font-size: 306.31px;
      }
    </style>
    <radialGradient id="radial-gradient" cx="594.47" cy="204.02" fx="594.47" fy="204.02" r="193.6" gradientUnits="userSpaceOnUse">
      <stop offset="0" stop-color="#ede6f1"/>
      <stop offset=".18" stop-color="#e0d4e5"/>
      <stop offset=".44" stop-color="#d3c2d9"/>
      <stop offset=".71" stop-color="#cbb6d2"/>
      <stop offset="1" stop-color="#c9b3d0"/>
    </radialGradient>
    <radialGradient id="radial-gradient-2" cx="963.58" cy="271.61" fx="963.58" fy="271.61" r="173.23" xlink:href="#radial-gradient"/>
    <radialGradient id="radial-gradient-3" cx="776.97" cy="369.38" fx="776.97" fy="369.38" r="71.77" xlink:href="#radial-gradient"/>
    <radialGradient id="radial-gradient-4" cx="694.7" cy="383.02" fx="694.7" fy="383.02" r="51.67" xlink:href="#radial-gradient"/>
    <radialGradient id="radial-gradient-5" cx="1038.47" cy="383" fx="1038.47" fy="383" r="102.02" xlink:href="#radial-gradient"/>
    <radialGradient id="radial-gradient-6" cx="225.07" cy="269.6" fx="225.07" fy="269.6" r="173.23" xlink:href="#radial-gradient"/>
    <radialGradient id="radial-gradient-7" cx="414.97" cy="369.38" fx="414.97" fy="369.38" r="71.77" xlink:href="#radial-gradient"/>
    <radialGradient id="radial-gradient-8" cx="495.95" cy="383" fx="495.95" fy="383" r="51.67" xlink:href="#radial-gradient"/>
    <radialGradient id="radial-gradient-9" cx="150.47" cy="383" fx="150.47" fy="383" r="102.02" xlink:href="#radial-gradient"/>
  </defs>
  <g id="Layer_1-2" data-name="Layer 1">
    <g>
      <path class="cls-3" d="M725.47,140s18-65,40-98l-33-33H456.47l-33,33c22,33,40,98,40,98,14,38-19,110-19,110,4,76,155,148,155,148,0,0,141-72,145-148,0,0-33-72-19-110Z"/>
      <path class="cls-5" d="M744.47,254.5s162-143.5,225.81,0c0,0,37.13,98.05,124.19,104.5,88.65,6.57,85.65-83.21,85-87,0,0-2-75-77-87s-102.48,76-13.74,110"/>
      <path class="cls-7" d="M681.47,344h141.61c11.68,0,22.8,5.21,30.13,14.3,12.1,15.01,21.8,36.46-21.59,36.46-66.75,0-17.67-32-17.67-32"/>
      <line class="cls-4" x1="622.18" y1="383.02" x2="767.21" y2="383.02"/>
      <line class="cls-8" x1="894.47" y1="383" x2="1182.47" y2="383"/>
      <path class="cls-6" d="M444.18,252.48s-162-143.5-225.81,0c0,0-37.13,98.05-124.19,104.5C5.53,363.55,8.52,273.77,9.18,269.98c0,0,2-75,77-87,75-12,102.48,76,13.74,110"/>
      <path class="cls-2" d="M510.47,344h-141.61c-11.68,0-22.8,5.21-30.13,14.3-12.1,15.01-21.8,36.46,21.59,36.46,66.75,0,17.67-32,17.67-32"/>
      <line class="cls-9" x1="568.47" y1="383" x2="423.43" y2="383"/>
      <line class="cls-1" x1="294.47" y1="383" x2="6.47" y2="383"/>
      <text class="cls-10" transform="translate(174.67 519.65)"><tspan x="0" y="0">DIGI ROYAL CONFERENCES</tspan></text>
      <text class="cls-11" transform="translate(500.88 289.02)"><tspan x="0" y="0">DR</tspan></text>
    </g>
  </g>
</svg>